:SAMPLES-PER-SECOND 30
:FULLY-SPECIFIED
:DEGREES
708
root  4.41968 37.904 6.33954 169.734 -63.9443 -172.705
RightUpLeg  12.759 -44.612 -24.6461
RightLeg  33.4068 -19.197 -13.3593
RightFoot  0.347971 -0.610127 5.9359
RightToes  5.82063e-011 0 -3.6325e-017
Spine  17.5968 2.35695 -0.0156281
Spine1  4.16448 1.71029 3.85129
HEad  -43.1076 15.9941 -14.5639
LeftShoulder1  0.826485 0.685316 -23.0395
LeftArm  -15.0597 -32.9259 -42.9694
LeftForeArm  10.9652 -69.913 -32.5233
LeftHand  -0.068699 7.09872 -1.37321
RightShoulder  0.404525 -1.68249 15.6882
RightArm  -26.218 25.9782 16.4881
RightForeArm  2.29357 75.0678 53.5427
RightHand  -0.343225 3.1586 -4.89501
LeftUpLeg  -27.8989 45.1959 -3.14491
LeftLeg  25.5732 16.1252 8.64579
LeftFoot  -4.18431 -0.483926 8.15466
LeftToes  1.68253e-010 -3.2327e-011 -2.69673e-012
709
root  3.4871 37.6176 6.24826 167.495 -69.0699 -171.756
RightUpLeg  11.5743 -35.8802 -23.7997
RightLeg  39.8705 -16.6287 -14.6075
RightFoot  6.17742 -0.59921 4.42712
RightToes  5.82063e-011 0 -3.6325e-017
Spine  18.185 2.44517 0.489819
Spine1  4.75523 2.14099 2.43777
HEad  -41.7232 13.9241 -13.2923
LeftShoulder1  0.896579 0.355531 -22.1115
LeftArm  -14.5715 -33.4643 -44.0989
LeftForeArm  10.7502 -69.5548 -31.7604
LeftHand  -0.0492979 6.15011 -1.69337
RightShoulder  0.366681 -1.88497 16.1972
RightArm  -26.6634 25.4591 16.0916
RightForeArm  1.34817 74.9697 53.1342
RightHand  -0.375605 3.59029 -5.10453
LeftUpLeg  -26.5454 39.9541 -2.20079
LeftLeg  30.0485 16.0013 10.103
LeftFoot  -6.10815 -0.369475 8.83294
LeftToes  1.68253e-010 -3.2327e-011 -2.69673e-012
710
root  2.61705 37.4332 6.11685 166.494 -72.8128 -171.838
RightUpLeg  9.00442 -26.0488 -21.2847
RightLeg  45.4396 -10.3703 -11.2235
RightFoot  12.1386 -0.136038 0.957402
RightToes  5.82063e-011 0 -3.6325e-017
Spine  18.5803 3.25353 0.0167605
Spine1  5.17539 2.90261 2.12719
HEad  -40.0642 12.5359 -12.5222
LeftShoulder1  0.863483 0.539397 -22.8148
LeftArm  -14.0775 -33.5158 -43.9711
LeftForeArm  10.8257 -69.6855 -32.0341
LeftHand  -0.052168 6.2676 -1.25162
RightShoulder  0.409577 -1.67492 15.8784
RightArm  -26.654 25.2931 16.7013
RightForeArm  -1.35037 74.3942 50.2675
RightHand  -0.411807 4.49054 -5.10468
LeftUpLeg  -25.1655 37.5938 -1.99179
LeftLeg  32.951 14.703 10.3944
LeftFoot  -8.1874 -0.183125 8.42184
LeftToes  1.68253e-010 -3.2327e-011 -2.69673e-012
711
root  1.86316 37.2842 5.90522 166.673 -77.2005 -172.448
RightUpLeg  6.59354 -18.7375 -18.7575
RightLeg  50.6224 -1.66762 -2.57251
RightFoot  10.5502 -0.368377 2.30646
RightToes  5.82063e-011 0 -3.6325e-017
Spine  19.0379 3.85616 -1.24851
Spine1  5.12857 3.12082 2.22078
HEad  -39.0409 11.2458 -11.9744
LeftShoulder1  0.822473 0.728832 -23.3382
LeftArm  -14.2254 -32.9846 -43.652
LeftForeArm  10.9713 -69.8285 -32.3302
LeftHand  -0.0487066 6.14164 -0.413464
RightShoulder  0.42951 -1.58204 15.8223
RightArm  -26.1539 25.7726 17.6397
RightForeArm  -1.59181 74.1172 48.869
RightHand  -0.31613 3.71624 -4.2943
LeftUpLeg  -24.3944 34.777 -2.57878
LeftLeg  34.8233 13.4271 10.2089
LeftFoot  -9.7727 -0.0495944 7.90064
LeftToes  1.68253e-010 -3.2327e-011 -2.69673e-012
712
root  1.17 37.2722 5.66918 161.31 -82.2341 -166.881
RightUpLeg  3.75873 -15.3535 -16.2178
RightLeg  56.4005 0.988207 1.05375
RightFoot  8.11615 -0.613692 3.88794
RightToes  5.82063e-011 0 -3.6325e-017
Spine  19.2804 3.92957 -1.71096
Spine1  5.23441 3.00912 1.88545
HEad  -38.8817 9.62983 -11.4189
LeftShoulder1  0.818408 0.7004 -22.8712
LeftArm  -15.1176 -32.1311 -43.7506
LeftForeArm  11.7729 -70.0609 -32.7235
LeftHand  -0.0526421 6.39052 -0.563
RightShoulder  0.36387 -1.91382 16.4491
RightArm  -25.4956 26.997 17.8549
RightForeArm  -1.5453 74.0967 48.7593
RightHand  -0.336848 3.57785 -4.61198
LeftUpLeg  -23.8347 31.461 -3.15542
LeftLeg  35.3468 11.9675 9.35199
LeftFoot  -10.8214 0.0319477 7.40621
LeftToes  1.68253e-010 -3.2327e-011 -2.69673e-012
713
root  0.456912 37.4335 5.45729 163.927 -87.7248 -169.046
RightUpLeg  0.421392 -14.9253 -14.2103
RightLeg  61.225 -0.440838 -1.44149
RightFoot  6.24207 -0.590324 4.09328
RightToes  5.82063e-011 0 -3.6325e-017
Spine  19.3831 3.82018 -1.50005
Spine1  5.25836 2.88393 1.92002
HEad  -39.2781 7.73495 -11.3745
LeftShoulder1  0.826672 0.711597 -23.3074
LeftArm  -15.5493 -32.1755 -43.6022
LeftForeArm  10.9002 -69.6958 -32.0442
LeftHand  -0.0444325 6.03221 -1.11267
RightShoulder  0.278833 -2.27511 16.3457
RightArm  -25.0187 27.7446 18.0034
RightForeArm  -2.12516 73.9445 48.1151
RightHand  -0.332173 3.74392 -4.47705
LeftUpLeg  -22.8085 27.2306 -3.45795
LeftLeg  34.5531 11.011 8.41914
LeftFoot  -11.0063 0.0456146 7.09212
LeftToes  1.68253e-010 -3.2327e-011 -2.69673e-012
714
root  -0.276947 37.6752 5.24013 27.27 -86.1257 -32.1959
RightUpLeg  -2.92321 -15.5885 -12.778
RightLeg  64.481 -2.24508 -5.69952
RightFoot  3.27849 -0.451606 3.66921
RightToes  5.82063e-011 0 -3.6325e-017
Spine  19.6234 3.15875 -1.22817
Spine1  4.96007 2.32679 1.63372
HEad  -39.2536 6.68025 -10.4798
LeftShoulder1  0.775941 0.864958 -23.0993
LeftArm  -16.0394 -31.6478 -43.2454
LeftForeArm  10.5518 -69.5645 -31.8146
LeftHand  -0.0426808 6.12142 -1.23894
RightShoulder  0.371922 -1.89097 16.6736
RightArm  -24.199 28.8895 18.4161
RightForeArm  -4.99911 73.3275 45.785
RightHand  -0.369761 3.70764 -4.97022
LeftUpLeg  -21.0677 22.9089 -3.47255
LeftLeg  33.0525 9.99951 7.30535
LeftFoot  -10.9664 0.0448837 6.44218
LeftToes  1.68253e-010 -3.2327e-011 -2.69673e-012
715
root  -1.0306 37.9615 5.0168 3.35754 -81.4766 -8.16779
RightUpLeg  -6.67958 -15.6627 -11.5557
RightLeg  65.695 -2.96833 -7.79372
RightFoot  1.04778 -0.262667 2.50023
RightToes  5.82063e-011 0 -3.6325e-017
Spine  20.0058 3.14753 -0.913895
Spine1  4.60539 2.42243 1.60229
HEad  -38.8873 5.15299 -9.36445
LeftShoulder1  0.814333 0.723921 -22.9848
LeftArm  -15.8 -31.1881 -43.4241
LeftForeArm  10.4302 -69.5178 -31.7339
LeftHand  -0.0378251 6.01681 -0.791925
RightShoulder  0.323192 -2.10365 16.7609
RightArm  -24.106 29.6091 18.2947
RightForeArm  -7.03338 72.5589 43.0459
RightHand  -0.302876 3.55521 -4.18717
LeftUpLeg  -18.9954 19.6569 -3.34142
LeftLeg  31.028 8.576 5.89471
LeftFoot  -10.9262 0.0452626 5.67152
LeftToes  1.68253e-010 -3.2327e-011 -2.69673e-012
716
root  -1.76286 38.1806 4.77656 -0.188354 -76.1368 -4.68333
RightUpLeg  -10.1648 -15.9227 -11.0177
RightLeg  65.0369 -2.90096 -7.4161
RightFoot  -0.94242 -0.237243 2.54406
RightToes  5.82063e-011 0 -3.6325e-017
Spine  21.0207 2.90364 -0.843436
Spine1  3.48358 2.15189 1.94128
HEad  -38.1346 3.79939 -8.9808
LeftShoulder1  0.814999 0.786919 -23.716
LeftArm  -15.4141 -31.0088 -42.8727
LeftForeArm  10.487 -69.3917 -31.4548
LeftHand  -0.0446355 5.9295 -2.13661
RightShoulder  0.376555 -1.84164 16.1888
RightArm  -23.736 29.6618 18.4562
RightForeArm  -9.13064 71.9243 41.1258
RightHand  -0.316648 3.19369 -4.51847
LeftUpLeg  -17.0511 16.2445 -3.23729
LeftLeg  29.3278 6.82095 4.48686
LeftFoot  -10.7804 0.0390453 5.26266
LeftToes  1.68253e-010 -3.2327e-011 -2.69673e-012
717
root  -2.54258 38.3751 4.5111 -0.916138 -71.3716 -3.67569
RightUpLeg  -14.0617 -15.3683 -10.3865
RightLeg  62.8265 -2.62368 -6.11085
RightFoot  -3.06302 -0.243585 3.06543
RightToes  5.82063e-011 0 -3.6325e-017
Spine  21.1111 2.90662 -0.378984
Spine1  3.11043 2.31722 1.7823
HEad  -37.7565 1.86707 -8.08537
LeftShoulder1  0.872072 0.578622 -23.5249
LeftArm  -15.2011 -30.7306 -42.8515
LeftForeArm  10.4071 -69.4318 -31.5529
LeftHand  -0.0571914 6.55397 -1.92073
RightShoulder  0.359469 -1.9253 16.3443
RightArm  -23.3969 30.0928 17.5888
RightForeArm  -10.5369 71.4849 39.9108
RightHand  -0.307101 3.66336 -4.18793
LeftUpLeg  -15.735 12.8823 -2.835
LeftLeg  28.0921 5.46324 3.51222
LeftFoot  -10.7889 0.0425102 4.65076
LeftToes  1.68253e-010 -3.2327e-011 -2.69673e-012
718
root  -3.37388 38.5323 4.23321 -1.85205 -66.3337 -2.67638
RightUpLeg  -17.1493 -14.4356 -10.5294
RightLeg  59.329 -2.3021 -4.68801
RightFoot  -5.13622 -0.254902 4.1529
RightToes  5.82063e-011 0 -3.6325e-017
Spine  21.1133 2.67795 -0.279485
Spine1  3.36601 2.13096 1.85877
HEad  -37.651 0.446439 -7.47358
LeftShoulder1  0.839116 0.644271 -23.0373
LeftArm  -15.3982 -30.5971 -42.9452
LeftForeArm  9.94681 -69.454 -31.6744
LeftHand  -0.054542 6.76668 -1.28408
RightShoulder  0.351151 -1.94178 16.0262
RightArm  -23.3511 30.5489 17.6584
RightForeArm  -11.6944 71.1969 39.1865
RightHand  -0.343438 4.10885 -4.4686
LeftUpLeg  -14.3679 9.05462 -2.49044
LeftLeg  27.1344 4.36832 2.78358
LeftFoot  -10.7966 0.0454954 4.1045
LeftToes  1.68253e-010 -3.2327e-011 -2.69673e-012
719
root  -4.23635 38.6289 3.96432 -3.06714 -60.7122 -1.65512
RightUpLeg  -19.0906 -13.446 -11.7527
RightLeg  54.8952 -1.98144 -3.42465
RightFoot  -7.34064 -0.253689 5.72475
RightToes  5.82063e-011 0 -3.6325e-017
Spine  21.4882 2.3806 -0.391447
Spine1  3.52761 1.69297 2.58652
HEad  -37.5775 -0.933847 -7.32492
LeftShoulder1  0.81871 0.753918 -23.4783
LeftArm  -15.2465 -31.0505 -42.8469
LeftForeArm  10.119 -69.3388 -31.4025
LeftHand  -0.0423175 6.37862 -1.02847
RightShoulder  0.349719 -1.93014 15.739
RightArm  -23.7263 30.794 17.4035
RightForeArm  -11.8828 71.1574 39.0946
RightHand  -0.326373 3.29996 -4.59758
LeftUpLeg  -12.9867 4.35636 -2.31754
LeftLeg  26.5677 3.50149 2.25685
LeftFoot  -10.9969 0.0553853 3.5552
LeftToes  1.68253e-010 -3.2327e-011 -2.69673e-012
720
root  -5.17234 38.6966 3.67406 -3.27405 -55.9313 -1.3853
RightUpLeg  -21.0841 -10.8724 -12.7958
RightLeg  49.8527 -2.16091 -3.09494
RightFoot  -8.34512 -0.184598 4.84541
RightToes  5.82063e-011 0 -3.6325e-017
Spine  21.6605 2.27516 -0.0190782
Spine1  3.40318 1.73094 2.48649
HEad  -37.5215 -2.21072 -6.67809
LeftShoulder1  0.783074 0.844603 -23.1406
LeftArm  -15.3727 -31.1042 -43.1191
LeftForeArm  10.0514 -69.2288 -31.1829
LeftHand  -0.0390028 6.3658 -1.74467
RightShoulder  0.330765 -2.03127 16.0199
RightArm  -23.6992 31.0787 17.3014
RightForeArm  -11.6407 71.2484 39.3334
RightHand  -0.366685 3.32915 -5.12474
LeftUpLeg  -12.1237 1.03179 -1.63493
LeftLeg  26.3934 2.04291 1.45636
LeftFoot  -11.6651 0.077037 2.68085
LeftToes  1.68253e-010 -3.2327e-011 -2.69673e-012
